<svg width="100" height="100" viewBox="0 0 100 100" fill="none" xmlns="http://www.w3.org/2000/svg">
<path fill-rule="evenodd" clip-rule="evenodd" d="M36.1125 39.2375C34.6992 39.2375 33.2997 39.5159 31.9939 40.0567C30.6881 40.5976 29.5017 41.3904 28.5023 42.3897C27.5029 43.3891 26.7101 44.5756 26.1693 45.8814C25.6284 47.1871 25.35 48.5866 25.35 50C25.35 51.4133 25.6284 52.8128 26.1693 54.1186C26.7101 55.4244 27.5029 56.6108 28.5023 57.6102C29.5017 58.6096 30.6881 59.4024 31.9939 59.9432C33.2997 60.4841 34.6992 60.7625 36.1125 60.7625H46.875V39.2375H36.1125ZM46.875 32.9875H36.1125C33.2576 32.9875 30.5196 31.8534 28.5008 29.8346C26.4821 27.8159 25.3479 25.0778 25.3479 22.2229C25.3479 19.368 26.4821 16.6299 28.5008 14.6112C30.5196 12.5924 33.2576 11.4583 36.1125 11.4583H46.875V32.9875ZM53.125 11.4583V32.9875H63.8875C66.7058 32.932 69.3899 31.7735 71.3634 29.7608C73.3369 27.7481 74.4424 25.0417 74.4424 22.2229C74.4424 19.4041 73.3369 16.6977 71.3634 14.685C69.3899 12.6723 66.7058 11.5138 63.8875 11.4583H53.125ZM63.8875 39.2333C61.0625 39.233 58.3506 40.3434 56.337 42.3249C54.3235 44.3065 53.1699 47.0003 53.125 49.825V50.1708C53.1595 52.2916 53.8199 54.355 55.0233 56.1017C56.2267 57.8484 57.9193 59.2006 59.8887 59.9884C61.8581 60.7762 64.0163 60.9646 66.0924 60.5297C68.1685 60.0949 70.0697 59.0563 71.5574 57.5444C73.0452 56.0325 74.053 54.1147 74.4542 52.0319C74.8555 49.9491 74.6324 47.7942 73.8129 45.8378C72.9935 43.8814 71.6141 42.2107 69.8483 41.0357C68.0824 39.8606 66.0086 39.2336 63.8875 39.2333ZM36.1125 67.0125C33.9829 67.0117 31.9009 67.6424 30.1297 68.825C28.3586 70.0075 26.978 71.6888 26.1624 73.656C25.3469 75.6233 25.1331 77.7883 25.5481 79.8771C25.963 81.9659 26.9881 83.8847 28.4937 85.3909C29.9993 86.897 31.9177 87.9229 34.0063 88.3386C36.095 88.7544 38.26 88.5414 40.2276 87.7266C42.1952 86.9119 43.877 85.5319 45.0602 83.7612C46.2435 81.9906 46.875 79.9088 46.875 77.7792V67.0125H36.1125Z" fill="#1A1A1A"/>
</svg>
