<svg width="100" height="100" viewBox="0 0 100 100" fill="none" xmlns="http://www.w3.org/2000/svg">
<g clip-path="url(#clip0_857_146)">
<path d="M50.0001 99.8167C48.5751 99.8167 47.2501 99.4459 46.0126 98.8042L33.3917 91.5625C31.4959 90.5542 32.4459 90.1875 33.0167 90.0042C35.5751 89.1792 36.0501 88.9959 38.7084 87.525C38.9917 87.3417 39.3751 87.4334 39.6584 87.6167L49.3376 93.2125C49.7126 93.3959 50.1917 93.3959 50.4751 93.2125L88.3376 72.0292C88.7126 71.8459 88.9042 71.4792 88.9042 71.0209V28.7459C88.9042 28.2875 88.7167 27.9209 88.3376 27.7375L50.4751 6.65002C50.0959 6.46668 49.6209 6.46668 49.3376 6.65002L11.4751 27.7375C11.0959 27.9209 10.9042 28.3792 10.9042 28.7459V71.0209C10.9042 71.3875 11.0959 71.8459 11.4751 72.0292L21.8167 77.8083C27.4167 80.5583 30.9251 77.35 30.9251 74.1417V32.4167C30.9251 31.8667 31.4001 31.3167 32.0667 31.3167H36.9042C37.4751 31.3167 38.0417 31.775 38.0417 32.4167V74.1375C38.0417 81.3834 33.9626 85.6 26.8459 85.6C24.6626 85.6 22.9542 85.6 18.1167 83.3083L8.15425 77.8083C6.95462 77.1472 5.95284 76.1783 5.25199 75.0015C4.55114 73.8246 4.17654 72.4822 4.16675 71.1125V28.8375C4.16675 26.0875 5.68341 23.5209 8.15425 22.1459L46.0167 0.958349C47.2499 0.327852 48.6151 -0.000915527 50.0001 -0.000915527C51.3851 -0.000915527 52.7503 0.327852 53.9834 0.958349L91.8501 22.1417C94.3167 23.5167 95.8334 26.0834 95.8334 28.8334V71.1084C95.8334 73.8584 94.3167 76.425 91.8501 77.8042L53.9876 98.9834C52.7291 99.5289 51.3718 99.8097 50.0001 99.8084M61.6709 70.7375C45.0667 70.7375 41.6501 63.4042 41.6501 57.1667C41.6501 56.6167 42.1251 56.0667 42.7876 56.0667H47.7209C48.2917 56.0667 48.7626 56.4333 48.7626 56.9833C49.5251 61.8417 51.7084 64.225 61.7667 64.225C69.7376 64.225 73.1542 62.4833 73.1542 58.3583C73.1542 55.975 72.2042 54.2333 59.7751 53.0417C49.4292 52.0292 42.9792 49.8334 42.9792 41.8542C42.9792 34.425 49.4292 30.0209 60.2501 30.0209C72.3959 30.0209 78.3751 34.0583 79.1334 42.8625C79.1241 43.1604 79.0238 43.4484 78.8459 43.6875C78.6584 43.8708 78.3751 44.0542 78.0876 44.0542H73.1542C72.9146 44.0484 72.6833 43.9648 72.4954 43.8159C72.3075 43.6671 72.1731 43.4611 72.1126 43.2292C70.9709 38.1875 68.0292 36.5333 60.2501 36.5333C51.5167 36.5333 50.4751 39.4667 50.4751 41.6709C50.4751 44.3292 51.7084 45.1542 63.4751 46.6209C75.1459 48.0875 80.6501 50.1959 80.6501 58.0792C80.5543 66.1542 73.7251 70.7375 61.6709 70.7375Z" fill="#1A1A1A"/>
</g>
<defs>
<clipPath id="clip0_857_146">
<rect width="100" height="100" fill="white"/>
</clipPath>
</defs>
</svg>
