<svg width="100" height="100" viewBox="0 0 100 100" fill="none" xmlns="http://www.w3.org/2000/svg">
<path d="M70.0209 4.16669C66.3535 4.20101 62.7067 4.71938 59.175 5.70835L58.925 5.78335C56.7013 5.40207 54.4517 5.19173 52.1959 5.15419C47.5584 5.07502 43.5709 6.16669 40.3625 7.98752C37.1959 6.92085 30.6292 5.08335 23.7084 5.45002C18.8875 5.70419 13.6292 7.12502 9.73336 11.1167C5.84586 15.1084 3.79169 21.2834 4.22503 29.6875C4.34169 32.0084 5.02086 35.7875 6.15419 40.6875C7.27919 45.5834 8.87086 51.3125 10.85 56.5417C12.8292 61.7709 15 66.475 18.3917 69.6667C20.0834 71.2667 22.4125 72.6125 25.1584 72.5C27.0875 72.425 28.8334 71.6042 30.3375 70.3917C31.0709 71.3292 31.8542 71.7375 32.5667 72.1167C33.4625 72.5917 34.3375 72.9167 35.2417 73.1334C37.7455 73.7754 40.3534 73.9044 42.9084 73.5125C44.0209 73.3334 45.1917 72.9834 46.3584 72.4834C46.4 73.7417 46.45 74.975 46.5042 76.225C46.6625 80.1833 46.7667 83.8375 47.9917 87.0417C48.1875 87.5667 48.725 90.2625 50.8542 92.6417C52.9792 95.025 57.1459 96.5084 61.8875 95.525C65.2334 94.8292 69.4917 93.575 72.3167 89.675C75.1084 85.8167 76.3708 80.2834 76.6208 71.3042C76.6833 70.8209 76.7584 70.4084 76.8375 70.0209L77.5042 70.0792H77.5792C81.15 70.2375 85.025 69.7458 88.2625 68.2875C91.1292 66.9958 93.2959 65.6959 94.875 63.3834C95.2709 62.8125 95.7042 62.1208 95.8209 60.925C95.9375 59.7375 95.2375 57.8708 94.0667 57.0125C91.7209 55.2875 90.25 55.9417 88.6709 56.2625C87.1153 56.5959 85.5375 56.7806 83.9375 56.8167C88.4917 49.3834 91.7542 41.4834 93.6167 34.4917C94.7167 30.3667 95.3375 26.5625 95.3875 23.2375C95.4375 19.9125 95.1583 16.9667 93.1042 14.4167C86.6833 6.45835 77.6542 4.25835 70.6709 4.18335C70.4542 4.1778 70.2375 4.17641 70.0209 4.17919V4.16669ZM69.8375 6.61252C76.4417 6.55002 84.8834 8.35002 90.9417 15.8625C92.3042 17.55 92.7084 20.0167 92.6625 23.0584C92.6125 26.0959 92.0333 29.7292 90.975 33.7125C88.9209 41.4292 85.0375 50.4208 79.5667 58.4958C79.7609 58.6305 79.9708 58.741 80.1917 58.825C81.3334 59.2834 83.9334 59.675 89.1292 58.6417C90.4334 58.3709 91.3917 58.1917 92.3834 58.925C92.6207 59.122 92.8092 59.3711 92.9342 59.653C93.0593 59.9349 93.1174 60.2419 93.1042 60.55C93.0491 61.0154 92.8723 61.458 92.5917 61.8334C91.5917 63.2959 89.6084 64.6834 87.0667 65.825C84.8209 66.8417 81.5958 67.3708 78.7375 67.4042C77.3042 67.4167 75.9834 67.3083 74.8625 66.9709L74.7875 66.9459C74.3542 70.9917 73.3584 78.9875 72.7125 82.6334C72.1917 85.575 71.2834 87.9125 69.5459 89.6625C67.8125 91.4125 65.3625 92.4667 62.0625 93.1542C57.975 94.0042 54.9959 93.0875 53.075 91.5167C51.1584 89.9542 50.2792 87.875 49.75 86.6C49.3875 85.725 49.2 84.5875 49.0167 83.0667C48.8151 81.2458 48.6803 79.4182 48.6125 77.5875C48.4929 74.3779 48.454 71.1658 48.4959 67.9542C46.7875 69.4667 44.6625 70.475 42.3834 70.8542C39.675 71.3 37.25 70.8625 35.8042 70.5125C35.0954 70.3378 34.41 70.079 33.7625 69.7417C33.0875 69.3959 32.45 69.0042 32.025 68.2292C31.7746 67.7868 31.6946 67.2681 31.8 66.7709C31.9365 66.2657 32.2388 65.821 32.6584 65.5084C33.4417 64.8917 34.4709 64.55 36.025 64.2334C38.8584 63.6709 39.8459 63.2834 40.4459 62.8209C40.9584 62.425 41.5375 61.625 42.5625 60.4459L42.55 60.2917C40.7233 60.2381 38.9325 59.7708 37.3125 58.925C36.725 59.525 33.7084 62.6209 30.0292 66.9125C28.4834 68.7084 26.775 69.7375 24.9709 69.8125C23.1667 69.8875 21.5375 69.0042 20.1542 67.7042C17.3834 65.0959 15.175 60.6084 13.25 55.5375C11.3334 50.4625 9.76669 44.8125 8.65836 40C7.54169 35.1875 6.88336 31.3084 6.79169 29.4375C6.37502 21.4834 8.29169 16.125 11.5834 12.7459C14.875 9.36669 19.3834 8.08335 23.7834 7.84169C31.675 7.40002 39.1709 10.0709 40.6875 10.6459C43.6084 8.72085 47.3709 7.52085 52.075 7.59585C54.3047 7.62686 56.524 7.90637 58.6917 8.42919L58.7709 8.39585C59.7264 8.07085 60.6959 7.79863 61.6792 7.57919C64.3562 6.97495 67.0892 6.65374 69.8334 6.62085L69.8375 6.61252ZM70.4334 9.17085H69.8625C67.6082 9.20122 65.3619 9.44678 63.1542 9.90419C67.5364 11.8128 71.3867 14.762 74.3709 18.4959C76.1787 20.7296 77.6782 23.1961 78.8292 25.8292C79.2625 26.8375 79.5542 27.6917 79.7167 28.35C79.8 28.6834 79.8584 28.9625 79.875 29.2542C79.8904 29.4388 79.8749 29.6247 79.8292 29.8042L79.8042 29.8542C79.925 33.2 79.0709 35.4667 78.9667 38.6584C78.8875 40.975 79.4958 43.6959 79.6459 46.6584C79.7875 49.45 79.4417 52.5125 77.575 55.5209C77.7306 55.7042 77.8806 55.8875 78.025 56.0709C82.9625 48.5292 86.525 40.1792 88.4209 33.0667C89.4334 29.2334 89.975 25.7625 90.0209 23.0125C90.0625 20.2625 89.5334 18.2667 88.8584 17.4375C83.575 10.8834 76.4292 9.21669 70.4334 9.17085ZM51.5792 10.1459C46.925 10.1542 43.5834 11.5209 41.0542 13.5625C38.4417 15.675 36.6917 18.5625 35.5417 21.525C34.4286 24.4856 33.748 27.5911 33.5209 30.7459L33.575 30.7167C34.9792 29.95 36.825 29.1875 38.8 28.7459C40.7792 28.3042 42.9084 28.1667 44.8375 28.8917C46.7667 29.6167 48.3625 31.325 48.9417 33.9167C51.7125 46.3584 48.0792 50.9834 46.7375 54.4709C46.2342 55.7366 45.8002 57.0288 45.4375 58.3417C45.6042 58.2945 45.7722 58.2611 45.9417 58.2417C46.6736 58.2021 47.4039 58.3453 48.0667 58.6584C49.4167 59.2 50.3417 60.3334 50.8417 61.6334C50.9722 61.9778 51.0653 62.3389 51.1209 62.7167C51.1764 62.875 51.2028 63.0375 51.2 63.2042C51.0503 67.9616 51.067 72.7229 51.25 77.4792C51.3417 79.5375 51.475 81.3458 51.6459 82.775C51.8125 84.2 52.0542 85.2833 52.2084 85.65C52.7084 86.875 53.4459 88.475 54.7792 89.5625C56.1125 90.65 58.0167 91.3708 61.5042 90.6458C64.5292 90.0167 66.3959 89.1458 67.6459 87.8833C68.8875 86.6292 69.6334 84.8834 70.1084 82.2042C70.8209 78.1917 72.2542 66.5625 72.425 64.3709C72.35 62.725 72.6 61.4542 73.1417 60.4875C73.7042 59.4959 74.5709 58.8875 75.3167 58.5583C75.6917 58.3917 76.0417 58.2834 76.3292 58.2042C76.0228 57.7804 75.7032 57.3663 75.3709 56.9625C74.2934 55.7021 73.41 54.2879 72.75 52.7667C72.432 52.1409 72.0944 51.5253 71.7375 50.9208C71.2167 50.0042 70.5542 48.8584 69.8625 47.5709C68.475 44.9917 66.9667 41.8667 66.1834 38.8209C65.4042 35.7834 65.2875 32.6375 67.2875 30.4167C69.0625 28.4459 72.1709 27.6292 76.8417 28.0875C76.7042 27.6875 76.6209 27.3542 76.3875 26.8209C75.3335 24.4 73.9556 22.1334 72.2917 20.0834C68.3334 15.175 61.9292 10.3084 52.0292 10.15H51.5792V10.1459ZM25.4292 10.3417C24.9292 10.3417 24.4292 10.3556 23.9292 10.3834C19.9542 10.6042 16.1959 11.725 13.5084 14.4917C10.8125 17.2542 9.04169 21.7875 9.42502 29.2959C9.50419 30.7125 10.1417 34.6959 11.2334 39.4209C12.325 44.1542 13.875 49.7167 15.7334 54.6292C17.5917 59.5459 19.85 63.825 21.9917 65.85C23.0709 66.8625 24.0084 67.2708 24.8584 67.2375C25.7125 67.1958 26.7375 66.7209 27.9959 65.2584C30.2875 62.5767 32.6637 59.9684 35.1209 57.4375C33.3847 55.9817 32.0482 54.1074 31.2375 51.9917C30.4334 49.8961 30.1893 47.6271 30.5292 45.4084C30.9334 42.5834 30.9875 39.9417 30.9417 37.8584C30.8917 35.825 30.7417 34.475 30.7417 33.6292V33.5125C30.7374 29.1089 31.5264 24.7406 33.0709 20.6167C34.1709 17.775 35.8125 14.8875 38.275 12.55C35.8584 11.7792 31.5667 10.6042 26.9209 10.3834C26.4213 10.3566 25.9211 10.3427 25.4209 10.3417H25.4292ZM74.2375 30.5167C71.5667 30.55 70.0667 31.2209 69.2792 32.0959C68.1625 33.3375 68.0584 35.5125 68.75 38.1959C69.4417 40.8792 70.8625 43.8834 72.2042 46.375C72.8709 47.625 73.5209 48.75 74.0459 49.6584C74.575 50.575 74.9625 51.225 75.1959 51.7834C75.4181 52.2861 75.6514 52.7458 75.8959 53.1625C76.9292 51.0417 77.1167 48.9625 77.0084 46.7917C76.8709 44.1083 76.2292 41.3625 76.325 38.5834C76.4292 35.3334 77.0917 33.2125 77.15 30.7C76.1836 30.5822 75.2111 30.521 74.2375 30.5167ZM41.8209 30.9542C41.0046 30.9604 40.1915 31.0554 39.3959 31.2375C37.814 31.6105 36.2873 32.1875 34.8542 32.9542C34.3736 33.2042 33.9153 33.4945 33.4792 33.825L33.3959 33.9C33.4209 34.4584 33.5334 35.8125 33.5834 37.8C33.625 39.9792 33.575 42.7584 33.1417 45.7584C32.2 52.2917 37.0834 57.7 42.825 57.7084C43.1584 56.3667 43.7125 55.0084 44.2625 53.575C45.8625 49.3959 49.0084 46.35 46.3584 34.4542C45.925 32.5084 45.0667 31.7209 43.8834 31.275C43.2207 31.0449 42.5221 30.9363 41.8209 30.9542ZM72.9875 31.7334H73.1875C73.4486 31.7417 73.6847 31.7695 73.8959 31.8167C74.0875 31.8552 74.2708 31.9271 74.4375 32.0292C74.5134 32.0739 74.579 32.1341 74.63 32.2059C74.6809 32.2777 74.7162 32.3595 74.7334 32.4459V32.4792C74.7443 32.6623 74.6945 32.8439 74.5917 32.9959C74.4754 33.206 74.3295 33.3982 74.1584 33.5667C73.7546 33.9952 73.2221 34.2804 72.6417 34.3792C72.0727 34.4466 71.4985 34.306 71.025 33.9834C70.8344 33.8575 70.662 33.7061 70.5125 33.5334C70.3861 33.3984 70.2996 33.2311 70.2625 33.05C70.2535 32.9609 70.2636 32.8709 70.2924 32.7861C70.3212 32.7012 70.3678 32.6236 70.4292 32.5584C70.5624 32.4185 70.7189 32.3029 70.8917 32.2167C71.5517 31.9137 72.2658 31.7465 72.9917 31.725L72.9875 31.7334ZM42.2042 32.375C42.4125 32.375 42.6306 32.3917 42.8584 32.425C43.4584 32.5084 43.9959 32.6625 44.4042 32.8917C44.6042 32.9945 44.7792 33.1292 44.9292 33.2959C45.007 33.3875 45.0653 33.4889 45.1042 33.6C45.1431 33.7111 45.1556 33.8264 45.1417 33.9459C45.1038 34.1668 45.0008 34.3714 44.8459 34.5334C44.6847 34.7274 44.495 34.896 44.2834 35.0334C43.7659 35.3857 43.1381 35.5383 42.5167 35.4625C41.8862 35.3607 41.3065 35.0548 40.8667 34.5917C40.6839 34.4052 40.5269 34.195 40.4 33.9667C40.2703 33.7669 40.2129 33.5286 40.2375 33.2917C40.2959 32.875 40.65 32.6667 40.9875 32.5417C41.3777 32.4179 41.7873 32.3671 42.1959 32.3917L42.2042 32.375ZM77.8708 60.425H77.8584C77.2792 60.6334 76.8042 60.7167 76.4 60.8834C75.9974 61.0327 75.6637 61.3248 75.4625 61.7042C75.2125 62.1417 75.0042 62.9208 75.0667 64.2458C75.2462 64.3643 75.443 64.4543 75.65 64.5125C76.3209 64.7125 77.45 64.8458 78.7125 64.825C81.2209 64.7958 84.3125 64.2292 85.9542 63.4875C87.3 62.8792 88.55 62.0875 89.6667 61.1375C84.1792 62.2375 81.0834 61.9459 79.1792 61.1834C78.7095 60.9917 78.2691 60.7392 77.8708 60.425ZM46.2542 60.7792H46.1709C45.9625 60.7959 45.6584 60.8625 45.075 61.4958C43.7 62.9875 43.225 63.9208 42.0917 64.7958C40.9667 65.6708 39.4959 66.1333 36.5625 66.7167C35.6334 66.9 35.1042 67.1042 34.7459 67.2667C34.8625 67.3583 34.85 67.3834 35.0209 67.4709C35.45 67.7 36.0042 67.9 36.4459 68.0125C37.7084 68.3167 39.7792 68.675 41.9417 68.3167C44.1042 67.9584 46.35 66.9542 48.2667 64.3459C48.6 63.8959 48.6334 63.2292 48.3625 62.5125C48.0834 61.8042 47.4834 61.1875 47.0584 61.0125C46.8048 60.893 46.533 60.8169 46.2542 60.7875V60.7792Z" fill="#1A1A1A"/>
</svg>
