<svg width="100" height="100" viewBox="0 0 100 100" fill="none" xmlns="http://www.w3.org/2000/svg">
<path d="M49.9999 42.125C54.2916 42.125 57.7916 45.625 57.7916 50C57.7916 54.1667 54.2916 57.7083 49.9999 57.7083C45.7083 57.7083 42.2083 54.1667 42.2083 50C42.2083 45.625 45.7083 42.125 49.9999 42.125ZM30.7083 83.3333C33.3333 84.9167 39.0833 82.5 45.7083 76.25C43.5416 73.7917 41.4166 71.125 39.4166 68.3333C36.0592 68.0097 32.7212 67.509 29.4166 66.8333C27.2916 75.75 28.0833 81.875 30.7083 83.3333ZM33.6666 59.4167L32.4583 57.2917C31.9999 58.5 31.5416 59.7083 31.2499 60.875C32.3749 61.125 33.6249 61.3333 34.9166 61.5417L33.6666 59.4167ZM60.9166 56.25L64.2916 50L60.9166 43.75C59.6666 41.5417 58.3333 39.5833 57.1249 37.625C54.8749 37.5 52.4999 37.5 49.9999 37.5C47.4999 37.5 45.1249 37.5 42.8749 37.625C41.6666 39.5833 40.3333 41.5417 39.0833 43.75L35.7083 50L39.0833 56.25C40.3333 58.4583 41.6666 60.4167 42.8749 62.375C45.1249 62.5 47.4999 62.5 49.9999 62.5C52.4999 62.5 54.8749 62.5 57.1249 62.375C58.3333 60.4167 59.6666 58.4583 60.9166 56.25ZM49.9999 28.25C49.2083 29.1667 48.3749 30.125 47.5416 31.25H52.4583C51.6249 30.125 50.7916 29.1667 49.9999 28.25ZM49.9999 71.75C50.7916 70.8333 51.6249 69.875 52.4583 68.75H47.5416C48.3749 69.875 49.2083 70.8333 49.9999 71.75ZM69.2499 16.6667C66.6666 15.0833 60.9166 17.5 54.2916 23.75C56.4583 26.2083 58.5833 28.875 60.5833 31.6667C63.9999 32 67.3749 32.5 70.5833 33.1667C72.7083 24.25 71.9166 18.125 69.2499 16.6667ZM66.3333 40.5833L67.5416 42.7083C67.9999 41.5 68.4583 40.2917 68.7499 39.125C67.6249 38.875 66.3749 38.6667 65.0833 38.4583L66.3333 40.5833ZM72.3749 11.2083C78.4999 14.7083 79.1666 23.9167 76.5833 34.6667C87.1666 37.7917 94.7916 42.9583 94.7916 50C94.7916 57.0417 87.1666 62.2083 76.5833 65.3333C79.1666 76.0833 78.4999 85.2917 72.3749 88.7917C66.2916 92.2917 57.9999 88.2917 49.9999 80.6667C41.9999 88.2917 33.7083 92.2917 27.5833 88.7917C21.4999 85.2917 20.8333 76.0833 23.4166 65.3333C12.8333 62.2083 5.20825 57.0417 5.20825 50C5.20825 42.9583 12.8333 37.7917 23.4166 34.6667C20.8333 23.9167 21.4999 14.7083 27.5833 11.2083C33.7083 7.70832 41.9999 11.7083 49.9999 19.3333C57.9999 11.7083 66.2916 7.70832 72.3749 11.2083ZM71.1666 50C72.5833 53.125 73.8333 56.25 74.8749 59.4167C83.6249 56.7917 88.5416 53.0417 88.5416 50C88.5416 46.9583 83.6249 43.2083 74.8749 40.5833C73.8333 43.75 72.5833 46.875 71.1666 50ZM28.8333 50C27.4166 46.875 26.1666 43.75 25.1249 40.5833C16.3749 43.2083 11.4583 46.9583 11.4583 50C11.4583 53.0417 16.3749 56.7917 25.1249 59.4167C26.1666 56.25 27.4166 53.125 28.8333 50ZM66.3333 59.4167L65.0833 61.5417C66.3749 61.3333 67.6249 61.125 68.7499 60.875C68.4583 59.7083 67.9999 58.5 67.5416 57.2917L66.3333 59.4167ZM54.2916 76.25C60.9166 82.5 66.6666 84.9167 69.2499 83.3333C71.9166 81.875 72.7083 75.75 70.5833 66.8333C67.3749 67.5 63.9999 68 60.5833 68.3333C58.5833 71.125 56.4583 73.7917 54.2916 76.25ZM33.6666 40.5833L34.9166 38.4583C33.6249 38.6667 32.3749 38.875 31.2499 39.125C31.5416 40.2917 31.9999 41.5 32.4583 42.7083L33.6666 40.5833ZM45.7083 23.75C39.0833 17.5 33.3333 15.0833 30.7083 16.6667C28.0833 18.125 27.2916 24.25 29.4166 33.1667C32.7212 32.491 36.0592 31.9903 39.4166 31.6667C41.4166 28.875 43.5416 26.2083 45.7083 23.75Z" fill="#1A1A1A"/>
</svg>
