<svg width="100" height="100" viewBox="0 0 100 100" fill="none" xmlns="http://www.w3.org/2000/svg">
<g clip-path="url(#clip0_857_135)">
<mask id="mask0_857_135" style="mask-type:luminance" maskUnits="userSpaceOnUse" x="0" y="0" width="100" height="100">
<path d="M0 0H100V100H0V0Z" fill="white"/>
</mask>
<g mask="url(#mask0_857_135)">
<path d="M69.2917 69.0125C72.9792 68.6291 75.7792 65.4166 75.6542 61.5625C75.5919 59.71 74.8154 57.9534 73.4874 56.6603C72.1594 55.3672 70.3827 54.6379 68.5292 54.625H68.2709C64.3251 54.75 61.2709 58.0916 61.3959 62.075C61.5292 64.0041 62.2917 65.6708 63.4376 66.825C59.1084 75.4375 52.4917 81.7291 42.5626 86.9958C35.8209 90.5958 28.8209 91.8791 21.8251 90.9791C16.0959 90.2083 11.6417 87.6375 8.84172 83.4C4.77089 77.1083 4.39172 70.2958 7.82506 63.4875C10.2417 58.6083 14.0626 55.0083 16.4792 53.2125C15.8238 51.0553 15.2718 48.8681 14.8251 46.6583C-3.62911 60.15 -1.71661 78.3916 3.87506 87C8.07506 93.425 16.6001 97.4083 26.0209 97.4083C28.5927 97.4236 31.1565 97.1213 33.6542 96.5083C49.9459 93.3 62.2876 83.5333 69.2876 69.0166M91.6834 53.0875C82.0126 41.6541 67.7584 35.3583 51.4709 35.3583H49.4334C48.852 34.2026 47.9617 33.2307 46.8614 32.5503C45.7611 31.87 44.4937 31.5078 43.2001 31.5041H42.9417C39.0001 31.6333 35.9417 34.975 36.0709 38.9583C36.1959 42.8125 39.3792 45.8916 43.1959 45.8916H43.4542C44.7984 45.8226 46.096 45.3764 47.1984 44.6041C48.3008 43.8318 49.1635 42.7647 49.6876 41.525H51.9792C61.6501 41.525 70.8126 44.35 79.0834 49.875C85.4459 54.1166 90.0292 59.6375 92.5709 66.3208C94.7375 71.7125 94.6125 76.9791 92.3209 81.4791C88.7542 88.2875 82.7751 92.0125 74.8834 92.0125C69.7959 92.0125 64.9584 90.4708 62.4126 89.3125C60.5811 90.9469 58.6704 92.4904 56.6876 93.9375C62.1584 96.5083 67.7584 97.9208 73.1042 97.9208C85.3209 97.9208 94.3542 91.1125 97.7917 84.3041C101.479 76.8541 101.225 64.0083 91.6834 53.0875ZM27.0417 71.1958C27.1667 75.05 30.3501 78.1333 34.1667 78.1333H34.4209C38.3667 78.0083 41.4209 74.6666 41.2959 70.6833C41.2335 68.8308 40.4571 67.0742 39.1291 65.7811C37.8011 64.4881 36.0244 63.7587 34.1709 63.7458H33.9126C33.6098 63.722 33.3054 63.7646 33.0209 63.8708C27.8042 55.1375 25.6417 45.6333 26.4042 35.3541C26.9126 27.6458 29.4584 20.9666 33.9126 15.4416C37.6042 10.6916 44.7292 8.37915 49.5667 8.24998C63.0542 7.99165 68.7792 24.95 69.1626 31.7583C70.8167 32.1416 73.6167 33.0416 75.5251 33.6833C73.9959 12.875 61.2751 2.08331 49.0542 2.08331C37.6042 2.08331 27.0417 10.4333 22.8417 22.7666C16.9876 39.2083 20.8042 55.0083 27.9334 67.4708C27.2959 68.3708 26.9126 69.7833 27.0417 71.1958Z" fill="#1A1A1A"/>
</g>
</g>
<defs>
<clipPath id="clip0_857_135">
<rect width="100" height="100" fill="white"/>
</clipPath>
</defs>
</svg>
